<svg width="163" height="45" viewBox="0 0 163 45" fill="none" xmlns="http://www.w3.org/2000/svg">
<rect width="162.658" height="44.9328" rx="22.4664" fill="#00B782" fill-opacity="0.15"/>
<path d="M18.5315 29.4146V14.1342H23.9257C24.9376 14.1342 25.8264 14.3256 26.5921 14.7085C27.3578 15.0914 27.9526 15.6383 28.3765 16.3493C28.8141 17.0604 29.0329 17.8945 29.0329 18.8516C29.0329 19.8088 28.8141 20.6429 28.3765 21.3539C27.9526 22.0513 27.3578 22.5982 26.5921 22.9948C25.8401 23.3776 24.9513 23.5691 23.9257 23.5691H20.5415V29.4146H18.5315ZM20.5415 21.7231H23.9873C24.6026 21.7231 25.1359 21.6069 25.5871 21.3744C26.0383 21.142 26.387 20.807 26.6331 20.3694C26.8793 19.9319 27.0023 19.4259 27.0023 18.8516C27.0023 18.2637 26.8793 17.7577 26.6331 17.3339C26.387 16.8963 26.0383 16.5613 25.5871 16.3288C25.1359 16.0964 24.6026 15.9802 23.9873 15.9802H20.5415V21.7231ZM36.2115 29.6607C35.145 29.6607 34.1947 29.4077 33.3606 28.9018C32.5265 28.3959 31.8702 27.7053 31.3916 26.8302C30.913 25.9414 30.6737 24.9501 30.6737 23.8562C30.6737 22.7486 30.9062 21.7641 31.3711 20.9027C31.8496 20.0412 32.4923 19.3644 33.2991 18.8721C34.1195 18.3662 35.0356 18.1133 36.0475 18.1133C36.8679 18.1133 37.5926 18.2637 38.2216 18.5645C38.8642 18.8516 39.4044 19.2482 39.8419 19.7541C40.2931 20.2463 40.635 20.8138 40.8674 21.4565C41.1136 22.0855 41.2366 22.7418 41.2366 23.4255C41.2366 23.5759 41.223 23.7468 41.1956 23.9382C41.1819 24.116 41.1614 24.2869 41.1341 24.451H32.0684V22.8102H40.0265L39.124 23.5485C39.2471 22.8375 39.1787 22.2017 38.9189 21.6411C38.6591 21.0804 38.2763 20.636 37.7703 20.3079C37.2644 19.9797 36.6901 19.8156 36.0475 19.8156C35.4048 19.8156 34.8168 19.9797 34.2836 20.3079C33.7503 20.636 33.3332 21.1078 33.0324 21.7231C32.7453 22.3247 32.629 23.0426 32.6837 23.8767C32.629 24.6835 32.7521 25.3945 33.0529 26.0098C33.3674 26.6114 33.805 27.0832 34.3656 27.425C34.9399 27.7532 35.562 27.9173 36.2321 27.9173C36.9704 27.9173 37.5926 27.7464 38.0985 27.4045C38.6044 27.0627 39.0147 26.6251 39.3291 26.0918L40.929 26.9123C40.7102 27.4182 40.3683 27.8831 39.9034 28.307C39.4522 28.7172 38.9121 29.0454 38.2831 29.2915C37.6678 29.5376 36.9773 29.6607 36.2115 29.6607ZM43.7237 29.4146V18.3594H45.5901V20.3899L45.385 20.1028C45.6448 19.4738 46.0414 19.0089 46.5747 18.7081C47.1079 18.3936 47.7574 18.2363 48.5232 18.2363H49.2V20.0412H48.236C47.4566 20.0412 46.8276 20.2874 46.349 20.7796C45.8705 21.2582 45.6312 21.9419 45.6312 22.8307V29.4146H43.7237ZM52.0635 29.4146V20.1848H49.9509V18.3594H52.0635V17.58C52.0635 16.7869 52.2344 16.1169 52.5762 15.5699C52.9317 15.023 53.3966 14.606 53.9709 14.3188C54.5589 14.0317 55.2084 13.8881 55.9194 13.8881C56.0698 13.8881 56.2339 13.9018 56.4117 13.9291C56.6031 13.9428 56.7604 13.9633 56.8834 13.9906V15.693C56.774 15.6657 56.6441 15.652 56.4937 15.652C56.3433 15.6383 56.2271 15.6315 56.1451 15.6315C55.5161 15.6315 54.9965 15.7819 54.5863 16.0827C54.1897 16.3835 53.9914 16.8826 53.9914 17.58V18.3594H56.6168V20.1848H53.9914V29.4146H52.0635ZM63.7764 29.6607C62.7099 29.6607 61.7459 29.4146 60.8844 28.9223C60.023 28.4164 59.3393 27.7259 58.8334 26.8507C58.3274 25.9756 58.0745 24.9843 58.0745 23.8767C58.0745 22.7691 58.3206 21.7846 58.8129 20.9232C59.3188 20.0618 60.0025 19.3781 60.8639 18.8721C61.7254 18.3662 62.6962 18.1133 63.7764 18.1133C64.843 18.1133 65.807 18.3662 66.6684 18.8721C67.5298 19.3644 68.2067 20.0412 68.6989 20.9027C69.2049 21.7641 69.4578 22.7555 69.4578 23.8767C69.4578 24.998 69.198 25.9961 68.6784 26.8712C68.1588 27.7327 67.4683 28.4164 66.6069 28.9223C65.7591 29.4146 64.8156 29.6607 63.7764 29.6607ZM63.7764 27.8147C64.4601 27.8147 65.0754 27.6438 65.6224 27.302C66.183 26.9601 66.6205 26.4884 66.935 25.8867C67.2632 25.2851 67.4273 24.6151 67.4273 23.8767C67.4273 23.1247 67.2632 22.4615 66.935 21.8872C66.6205 21.2992 66.183 20.8343 65.6224 20.4925C65.0754 20.137 64.4601 19.9592 63.7764 19.9592C63.0791 19.9592 62.4501 20.137 61.8894 20.4925C61.3425 20.8343 60.9049 21.2992 60.5768 21.8872C60.2486 22.4615 60.0845 23.1247 60.0845 23.8767C60.0845 24.6151 60.2486 25.2851 60.5768 25.8867C60.9049 26.4884 61.3425 26.9601 61.8894 27.302C62.4501 27.6438 63.0791 27.8147 63.7764 27.8147ZM71.9457 29.4146V18.3594H73.8121V20.3899L73.607 20.1028C73.8668 19.4738 74.2634 19.0089 74.7967 18.7081C75.3299 18.3936 75.9794 18.2363 76.7452 18.2363H77.422V20.0412H76.458C75.6786 20.0412 75.0496 20.2874 74.571 20.7796C74.0925 21.2582 73.8532 21.9419 73.8532 22.8307V29.4146H71.9457ZM79.1164 29.4146V18.3594H80.9828V20.6155L80.7162 20.2669C80.9897 19.5695 81.4272 19.0362 82.0289 18.667C82.6305 18.2978 83.3073 18.1133 84.0594 18.1133C84.9208 18.1133 85.6934 18.3525 86.3771 18.8311C87.0744 19.3097 87.553 19.9387 87.8128 20.7181L87.2795 20.7386C87.5667 19.8772 88.0521 19.2277 88.7358 18.7901C89.4195 18.3389 90.1784 18.1133 91.0125 18.1133C91.7782 18.1133 92.4687 18.291 93.084 18.6465C93.713 19.002 94.2121 19.4943 94.5813 20.1233C94.9505 20.7523 95.1351 21.4633 95.1351 22.2564V29.4146H93.2071V22.8717C93.2071 22.2564 93.0977 21.7368 92.8789 21.3129C92.6601 20.889 92.3593 20.5608 91.9765 20.3284C91.6073 20.0823 91.1697 19.9592 90.6638 19.9592C90.1715 19.9592 89.7271 20.0823 89.3306 20.3284C88.9477 20.5608 88.6401 20.8958 88.4076 21.3334C88.1888 21.7573 88.0795 22.2701 88.0795 22.8717V29.4146H86.1515V22.8717C86.1515 22.2564 86.0421 21.7368 85.8233 21.3129C85.6045 20.889 85.3037 20.5608 84.9208 20.3284C84.5516 20.0823 84.1141 19.9592 83.6082 19.9592C83.1159 19.9592 82.6715 20.0823 82.275 20.3284C81.8921 20.5608 81.5845 20.8958 81.352 21.3334C81.1332 21.7573 81.0238 22.2701 81.0238 22.8717V29.4146H79.1164ZM101.085 29.6607C100.36 29.6607 99.7175 29.5308 99.1569 29.271C98.61 28.9975 98.1792 28.6283 97.8647 28.1634C97.5503 27.6848 97.393 27.1379 97.393 26.5226C97.393 25.9346 97.5161 25.4082 97.7622 24.9433C98.022 24.4647 98.4185 24.0613 98.9518 23.7331C99.4988 23.405 100.182 23.1725 101.003 23.0358L105.105 22.3589V23.9588L101.434 24.5741C100.723 24.6971 100.203 24.9227 99.8748 25.2509C99.5603 25.5791 99.403 25.9825 99.403 26.461C99.403 26.9123 99.5808 27.2883 99.9363 27.5891C100.305 27.8899 100.764 28.0403 101.311 28.0403C102.008 28.0403 102.61 27.8968 103.115 27.6096C103.635 27.3088 104.038 26.9054 104.326 26.3995C104.626 25.8936 104.777 25.333 104.777 24.7176V21.9077C104.777 21.3061 104.551 20.8206 104.1 20.4515C103.662 20.0686 103.081 19.8772 102.357 19.8772C101.728 19.8772 101.167 20.0412 100.675 20.3694C100.196 20.6839 99.8406 21.1078 99.6081 21.6411L97.9468 20.7796C98.1519 20.2737 98.4801 19.8225 98.9313 19.4259C99.3825 19.0157 99.909 18.6944 100.511 18.4619C101.112 18.2295 101.741 18.1133 102.398 18.1133C103.245 18.1133 103.991 18.2773 104.633 18.6055C105.276 18.92 105.775 19.3644 106.13 19.9387C106.5 20.4993 106.684 21.1556 106.684 21.9077V29.4146H104.818V27.3225L105.166 27.4455C104.934 27.8831 104.62 28.266 104.223 28.5941C103.826 28.9223 103.362 29.1821 102.828 29.3735C102.295 29.565 101.714 29.6607 101.085 29.6607ZM109.642 29.4146V18.3594H111.508V20.513L111.201 20.3284C111.474 19.631 111.912 19.0909 112.513 18.7081C113.129 18.3115 113.846 18.1133 114.667 18.1133C115.46 18.1133 116.164 18.291 116.779 18.6465C117.408 19.002 117.901 19.4943 118.256 20.1233C118.625 20.7523 118.81 21.4633 118.81 22.2564V29.4146H116.882V22.8717C116.882 22.2564 116.773 21.7368 116.554 21.3129C116.335 20.889 116.021 20.5608 115.61 20.3284C115.214 20.0823 114.756 19.9592 114.236 19.9592C113.717 19.9592 113.252 20.0823 112.841 20.3284C112.445 20.5608 112.13 20.8958 111.898 21.3334C111.665 21.7573 111.549 22.2701 111.549 22.8717V29.4146H109.642ZM126.667 29.6607C125.587 29.6607 124.623 29.4077 123.775 28.9018C122.941 28.3959 122.285 27.7053 121.806 26.8302C121.328 25.9551 121.088 24.9706 121.088 23.8767C121.088 22.7691 121.328 21.7846 121.806 20.9232C122.285 20.0618 122.941 19.3781 123.775 18.8721C124.623 18.3662 125.587 18.1133 126.667 18.1133C127.392 18.1133 128.069 18.2432 128.698 18.503C129.327 18.7628 129.88 19.1114 130.359 19.549C130.838 19.9865 131.186 20.4993 131.405 21.0873L129.703 21.9077C129.443 21.3334 129.046 20.8685 128.513 20.513C127.98 20.1438 127.364 19.9592 126.667 19.9592C125.997 19.9592 125.389 20.1301 124.842 20.472C124.308 20.8138 123.885 21.2787 123.57 21.8667C123.256 22.4546 123.098 23.1315 123.098 23.8972C123.098 24.6356 123.256 25.3056 123.57 25.9073C123.885 26.4952 124.308 26.9601 124.842 27.302C125.389 27.6438 125.997 27.8147 126.667 27.8147C127.364 27.8147 127.98 27.637 128.513 27.2815C129.046 26.9123 129.443 26.4269 129.703 25.8252L131.405 26.6867C131.186 27.2609 130.838 27.7737 130.359 28.2249C129.88 28.6625 129.327 29.0112 128.698 29.271C128.069 29.5308 127.392 29.6607 126.667 29.6607ZM138.985 29.6607C137.918 29.6607 136.968 29.4077 136.134 28.9018C135.299 28.3959 134.643 27.7053 134.165 26.8302C133.686 25.9414 133.447 24.9501 133.447 23.8562C133.447 22.7486 133.679 21.7641 134.144 20.9027C134.623 20.0412 135.265 19.3644 136.072 18.8721C136.892 18.3662 137.809 18.1133 138.82 18.1133C139.641 18.1133 140.366 18.2637 140.995 18.5645C141.637 18.8516 142.177 19.2482 142.615 19.7541C143.066 20.2463 143.408 20.8138 143.64 21.4565C143.887 22.0855 144.01 22.7418 144.01 23.4255C144.01 23.5759 143.996 23.7468 143.969 23.9382C143.955 24.116 143.934 24.2869 143.907 24.451H134.841V22.8102H142.799L141.897 23.5485C142.02 22.8375 141.952 22.2017 141.692 21.6411C141.432 21.0804 141.049 20.636 140.543 20.3079C140.037 19.9797 139.463 19.8156 138.82 19.8156C138.178 19.8156 137.59 19.9797 137.057 20.3079C136.523 20.636 136.106 21.1078 135.805 21.7231C135.518 22.3247 135.402 23.0426 135.457 23.8767C135.402 24.6835 135.525 25.3945 135.826 26.0098C136.14 26.6114 136.578 27.0832 137.139 27.425C137.713 27.7532 138.335 27.9173 139.005 27.9173C139.743 27.9173 140.366 27.7464 140.871 27.4045C141.377 27.0627 141.788 26.6251 142.102 26.0918L143.702 26.9123C143.483 27.4182 143.141 27.8831 142.676 28.307C142.225 28.7172 141.685 29.0454 141.056 29.2915C140.441 29.5376 139.75 29.6607 138.985 29.6607Z" fill="#00B782" fill-opacity="0.7"/>
</svg>
