<svg width="132" height="45" viewBox="0 0 132 45" fill="none" xmlns="http://www.w3.org/2000/svg">
<rect width="131.658" height="44.9328" rx="22.4664" fill="#00B782" fill-opacity="0.3"/>
<path d="M21.3824 29.4146L17.0547 18.3594H19.1878L22.6541 27.7122H21.9157L25.4025 18.3594H27.5356L23.1874 29.4146H21.3824ZM33.2007 29.6607C32.0931 29.6607 31.1291 29.3872 30.3087 28.8403C29.4883 28.2933 28.9071 27.5549 28.5653 26.6251L30.0831 25.8867C30.3976 26.5431 30.8283 27.0627 31.3752 27.4455C31.9222 27.8284 32.5307 28.0198 33.2007 28.0198C33.8023 28.0198 34.3014 27.8763 34.6979 27.5891C35.0945 27.302 35.2927 26.9259 35.2927 26.461C35.2927 26.1329 35.197 25.8731 35.0056 25.6816C34.8278 25.4765 34.6091 25.3193 34.3493 25.2099C34.0895 25.0868 33.8502 24.998 33.6314 24.9433L31.97 24.4715C30.9719 24.1844 30.2403 23.7742 29.7754 23.2409C29.3242 22.7076 29.0986 22.0855 29.0986 21.3744C29.0986 20.7181 29.2626 20.1506 29.5908 19.6721C29.9327 19.1798 30.3907 18.7969 30.965 18.5235C31.553 18.25 32.2093 18.1133 32.934 18.1133C33.9049 18.1133 34.7731 18.3594 35.5389 18.8516C36.3183 19.3439 36.8721 20.0344 37.2002 20.9232L35.6414 21.6411C35.3953 21.0668 35.0261 20.6155 34.5339 20.2874C34.0416 19.9455 33.4878 19.7746 32.8725 19.7746C32.3119 19.7746 31.8675 19.9182 31.5393 20.2053C31.2111 20.4788 31.0471 20.8275 31.0471 21.2514C31.0471 21.5659 31.1291 21.8257 31.2932 22.0308C31.4573 22.2222 31.6555 22.3726 31.888 22.482C32.1204 22.5777 32.3461 22.6598 32.5648 22.7281L34.3698 23.2614C35.2722 23.5212 35.9696 23.9246 36.4618 24.4715C36.9678 25.0185 37.2207 25.6748 37.2207 26.4405C37.2207 27.0558 37.0498 27.6096 36.708 28.1019C36.3661 28.5941 35.8944 28.977 35.2927 29.2505C34.6911 29.5239 33.9937 29.6607 33.2007 29.6607ZM40.4971 29.4146V26.9533H42.4866V29.4146H40.4971ZM49.9983 29.4146V14.1342H55.3926C56.4044 14.1342 57.2932 14.3256 58.0589 14.7085C58.8247 15.0914 59.4195 15.6383 59.8434 16.3493C60.2809 17.0604 60.4997 17.8945 60.4997 18.8516C60.4997 19.8088 60.2809 20.6429 59.8434 21.3539C59.4195 22.0513 58.8247 22.5982 58.0589 22.9948C57.3069 23.3776 56.4181 23.5691 55.3926 23.5691H52.0083V29.4146H49.9983ZM52.0083 21.7231H55.4541C56.0694 21.7231 56.6027 21.6069 57.0539 21.3744C57.5052 21.142 57.8538 20.807 58.1 20.3694C58.3461 19.9319 58.4692 19.4259 58.4692 18.8516C58.4692 18.2637 58.3461 17.7577 58.1 17.3339C57.8538 16.8963 57.5052 16.5613 57.0539 16.3288C56.6027 16.0964 56.0694 15.9802 55.4541 15.9802H52.0083V21.7231ZM62.9924 29.4146V18.3594H64.8588V20.3899L64.6537 20.1028C64.9135 19.4738 65.3101 19.0089 65.8433 18.7081C66.3766 18.3936 67.0261 18.2363 67.7918 18.2363H68.4687V20.0412H67.5047C66.7253 20.0412 66.0963 20.2874 65.6177 20.7796C65.1391 21.2582 64.8998 21.9419 64.8998 22.8307V29.4146H62.9924ZM70.163 29.4146V18.3594H72.0705V29.4146H70.163ZM70.163 16.5955V14.1342H72.0705V16.5955H70.163ZM78.9888 29.6607C77.8812 29.6607 76.9172 29.3872 76.0968 28.8403C75.2764 28.2933 74.6953 27.5549 74.3534 26.6251L75.8712 25.8867C76.1857 26.5431 76.6164 27.0627 77.1634 27.4455C77.7103 27.8284 78.3188 28.0198 78.9888 28.0198C79.5905 28.0198 80.0895 27.8763 80.4861 27.5891C80.8826 27.302 81.0809 26.9259 81.0809 26.461C81.0809 26.1329 80.9852 25.8731 80.7937 25.6816C80.616 25.4765 80.3972 25.3193 80.1374 25.2099C79.8776 25.0868 79.6383 24.998 79.4195 24.9433L77.7582 24.4715C76.76 24.1844 76.0285 23.7742 75.5636 23.2409C75.1123 22.7076 74.8867 22.0855 74.8867 21.3744C74.8867 20.7181 75.0508 20.1506 75.379 19.6721C75.7208 19.1798 76.1789 18.7969 76.7532 18.5235C77.3411 18.25 77.9975 18.1133 78.7222 18.1133C79.693 18.1133 80.5613 18.3594 81.327 18.8516C82.1064 19.3439 82.6602 20.0344 82.9884 20.9232L81.4296 21.6411C81.1834 21.0668 80.8142 20.6155 80.322 20.2874C79.8297 19.9455 79.276 19.7746 78.6606 19.7746C78.1 19.7746 77.6556 19.9182 77.3275 20.2053C76.9993 20.4788 76.8352 20.8275 76.8352 21.2514C76.8352 21.5659 76.9172 21.8257 77.0813 22.0308C77.2454 22.2222 77.4437 22.3726 77.6761 22.482C77.9086 22.5777 78.1342 22.6598 78.353 22.7281L80.1579 23.2614C81.0604 23.5212 81.7577 23.9246 82.25 24.4715C82.7559 25.0185 83.0089 25.6748 83.0089 26.4405C83.0089 27.0558 82.838 27.6096 82.4961 28.1019C82.1543 28.5941 81.6825 28.977 81.0809 29.2505C80.4792 29.5239 79.7819 29.6607 78.9888 29.6607ZM85.5059 29.4146V18.3594H87.3723V20.6155L87.1057 20.2669C87.3792 19.5695 87.8167 19.0362 88.4184 18.667C89.02 18.2978 89.6969 18.1133 90.4489 18.1133C91.3104 18.1133 92.0829 18.3525 92.7666 18.8311C93.464 19.3097 93.9425 19.9387 94.2023 20.7181L93.6691 20.7386C93.9562 19.8772 94.4416 19.2277 95.1253 18.7901C95.809 18.3389 96.5679 18.1133 97.402 18.1133C98.1677 18.1133 98.8582 18.291 99.4735 18.6465C100.103 19.002 100.602 19.4943 100.971 20.1233C101.34 20.7523 101.525 21.4633 101.525 22.2564V29.4146H99.5966V22.8717C99.5966 22.2564 99.4872 21.7368 99.2684 21.3129C99.0497 20.889 98.7488 20.5608 98.366 20.3284C97.9968 20.0823 97.5592 19.9592 97.0533 19.9592C96.561 19.9592 96.1167 20.0823 95.7201 20.3284C95.3373 20.5608 95.0296 20.8958 94.7971 21.3334C94.5784 21.7573 94.469 22.2701 94.469 22.8717V29.4146H92.541V22.8717C92.541 22.2564 92.4316 21.7368 92.2128 21.3129C91.994 20.889 91.6932 20.5608 91.3104 20.3284C90.9412 20.0823 90.5036 19.9592 89.9977 19.9592C89.5054 19.9592 89.061 20.0823 88.6645 20.3284C88.2816 20.5608 87.974 20.8958 87.7415 21.3334C87.5227 21.7573 87.4134 22.2701 87.4134 22.8717V29.4146H85.5059ZM107.474 29.6607C106.75 29.6607 106.107 29.5308 105.546 29.271C104.999 28.9975 104.569 28.6283 104.254 28.1634C103.94 27.6848 103.783 27.1379 103.783 26.5226C103.783 25.9346 103.906 25.4082 104.152 24.9433C104.411 24.4647 104.808 24.0613 105.341 23.7331C105.888 23.405 106.572 23.1725 107.392 23.0358L111.494 22.3589V23.9588L107.823 24.5741C107.112 24.6971 106.592 24.9227 106.264 25.2509C105.95 25.5791 105.793 25.9825 105.793 26.461C105.793 26.9123 105.97 27.2883 106.326 27.5891C106.695 27.8899 107.153 28.0403 107.7 28.0403C108.397 28.0403 108.999 27.8968 109.505 27.6096C110.025 27.3088 110.428 26.9054 110.715 26.3995C111.016 25.8936 111.166 25.333 111.166 24.7176V21.9077C111.166 21.3061 110.941 20.8206 110.489 20.4515C110.052 20.0686 109.471 19.8772 108.746 19.8772C108.117 19.8772 107.556 20.0412 107.064 20.3694C106.586 20.6839 106.23 21.1078 105.998 21.6411L104.336 20.7796C104.541 20.2737 104.87 19.8225 105.321 19.4259C105.772 19.0157 106.298 18.6944 106.9 18.4619C107.502 18.2295 108.131 18.1133 108.787 18.1133C109.635 18.1133 110.38 18.2773 111.023 18.6055C111.665 18.92 112.164 19.3644 112.52 19.9387C112.889 20.4993 113.074 21.1556 113.074 21.9077V29.4146H111.207V27.3225L111.556 27.4455C111.324 27.8831 111.009 28.266 110.613 28.5941C110.216 28.9223 109.751 29.1821 109.218 29.3735C108.685 29.565 108.103 29.6607 107.474 29.6607Z" fill="#00B782"/>
</svg>
