<svg width="153" height="45" viewBox="0 0 153 45" fill="none" xmlns="http://www.w3.org/2000/svg">
<rect width="152.658" height="44.9328" rx="22.4664" fill="#00B782" fill-opacity="0.15"/>
<path d="M25.5871 29.6607C24.5069 29.6607 23.5087 29.4692 22.5926 29.0864C21.6764 28.6898 20.8833 28.1361 20.2133 27.425C19.5433 26.714 19.0169 25.8799 18.634 24.9227C18.2648 23.9656 18.0802 22.9196 18.0802 21.7846C18.0802 20.636 18.2648 19.5832 18.634 18.626C19.0032 17.6689 19.5228 16.8348 20.1928 16.1237C20.8628 15.4127 21.6559 14.8658 22.572 14.4829C23.4882 14.0864 24.4864 13.8881 25.5666 13.8881C26.6195 13.8881 27.5629 14.0727 28.397 14.4419C29.2448 14.8111 29.9558 15.2896 30.5301 15.8776C31.1181 16.4656 31.5351 17.0946 31.7813 17.7646L29.9763 18.6465C29.6208 17.7577 29.067 17.0535 28.315 16.5339C27.5629 16.0143 26.6468 15.7545 25.5666 15.7545C24.5 15.7545 23.5497 16.0075 22.7156 16.5134C21.8952 17.0194 21.2525 17.7236 20.7876 18.626C20.3227 19.5285 20.0903 20.5814 20.0903 21.7846C20.0903 22.9742 20.3227 24.0203 20.7876 24.9227C21.2662 25.8252 21.9157 26.5294 22.7361 27.0353C23.5702 27.5413 24.5205 27.7942 25.5871 27.7942C26.5169 27.7942 27.3578 27.596 28.1099 27.1994C28.8619 26.8029 29.4567 26.2559 29.8943 25.5586C30.3319 24.8612 30.5506 24.0545 30.5506 23.1383V22.1948L31.4736 23.0563H25.5666V21.3129H32.5812V22.6666C32.5812 23.7331 32.3966 24.6971 32.0274 25.5586C31.6582 26.42 31.1523 27.1584 30.5096 27.7737C29.867 28.3754 29.1217 28.8403 28.274 29.1684C27.4262 29.4966 26.5306 29.6607 25.5871 29.6607ZM35.0708 29.4146V18.3594H36.9373V20.3899L36.7322 20.1028C36.992 19.4738 37.3885 19.0089 37.9218 18.7081C38.455 18.3936 39.1045 18.2363 39.8703 18.2363H40.5471V20.0412H39.5831C38.8037 20.0412 38.1747 20.2874 37.6962 20.7796C37.2176 21.2582 36.9783 21.9419 36.9783 22.8307V29.4146H35.0708ZM45.4821 29.6607C44.7574 29.6607 44.1148 29.5308 43.5542 29.271C43.0072 28.9975 42.5765 28.6283 42.262 28.1634C41.9475 27.6848 41.7902 27.1379 41.7902 26.5226C41.7902 25.9346 41.9133 25.4082 42.1594 24.9433C42.4192 24.4647 42.8158 24.0613 43.349 23.7331C43.896 23.405 44.5797 23.1725 45.4001 23.0358L49.5022 22.3589V23.9588L45.8308 24.5741C45.1198 24.6971 44.6002 24.9227 44.272 25.2509C43.9575 25.5791 43.8003 25.9825 43.8003 26.461C43.8003 26.9123 43.978 27.2883 44.3336 27.5891C44.7027 27.8899 45.1608 28.0403 45.7078 28.0403C46.4051 28.0403 47.0068 27.8968 47.5127 27.6096C48.0323 27.3088 48.4357 26.9054 48.7228 26.3995C49.0236 25.8936 49.174 25.333 49.174 24.7176V21.9077C49.174 21.3061 48.9484 20.8206 48.4972 20.4515C48.0596 20.0686 47.4785 19.8772 46.7538 19.8772C46.1248 19.8772 45.5642 20.0412 45.0719 20.3694C44.5934 20.6839 44.2378 21.1078 44.0054 21.6411L42.344 20.7796C42.5491 20.2737 42.8773 19.8225 43.3285 19.4259C43.7798 19.0157 44.3062 18.6944 44.9078 18.4619C45.5095 18.2295 46.1385 18.1133 46.7948 18.1133C47.6426 18.1133 48.3878 18.2773 49.0305 18.6055C49.6731 18.92 50.1722 19.3644 50.5277 19.9387C50.8969 20.4993 51.0815 21.1556 51.0815 21.9077V29.4146H49.2151V27.3225L49.5637 27.4455C49.3313 27.8831 49.0168 28.266 48.6203 28.5941C48.2237 28.9223 47.7588 29.1821 47.2255 29.3735C46.6923 29.565 46.1111 29.6607 45.4821 29.6607ZM54.039 33.5167V18.3594H55.9055V20.7386L55.6594 20.2669C56.0696 19.6105 56.6302 19.0909 57.3412 18.7081C58.0523 18.3115 58.8659 18.1133 59.782 18.1133C60.8212 18.1133 61.751 18.3662 62.5714 18.8721C63.4055 19.3781 64.0619 20.0686 64.5404 20.9437C65.019 21.8051 65.2583 22.7897 65.2583 23.8972C65.2583 24.9774 65.019 25.9551 64.5404 26.8302C64.0619 27.7053 63.4055 28.3959 62.5714 28.9018C61.751 29.4077 60.8144 29.6607 59.7615 29.6607C58.8727 29.6607 58.0591 29.4624 57.3207 29.0659C56.596 28.6693 56.0354 28.1087 55.6389 27.384L55.9465 27.0558V33.5167H54.039ZM59.6179 27.8147C60.3153 27.8147 60.9374 27.6438 61.4844 27.302C62.0313 26.9601 62.4552 26.4952 62.756 25.9073C63.0705 25.3056 63.2278 24.6356 63.2278 23.8972C63.2278 23.1315 63.0705 22.4615 62.756 21.8872C62.4552 21.2992 62.0313 20.8343 61.4844 20.4925C60.9374 20.137 60.3153 19.9592 59.6179 19.9592C58.9205 19.9592 58.2916 20.1301 57.7309 20.472C57.184 20.8138 56.7464 21.2855 56.4183 21.8872C56.1038 22.4752 55.9465 23.1452 55.9465 23.8972C55.9465 24.6356 56.1038 25.3056 56.4183 25.9073C56.7464 26.4952 57.184 26.9601 57.7309 27.302C58.2916 27.6438 58.9205 27.8147 59.6179 27.8147ZM67.7595 29.4146V13.8881H69.6669V20.513L69.3183 20.3284C69.5917 19.631 70.0293 19.0909 70.6309 18.7081C71.2462 18.3115 71.9641 18.1133 72.7845 18.1133C73.5776 18.1133 74.2818 18.291 74.8971 18.6465C75.5261 19.002 76.0184 19.4943 76.3739 20.1233C76.7431 20.7523 76.9277 21.4633 76.9277 22.2564V29.4146H74.9997V22.8717C74.9997 22.2564 74.8834 21.7368 74.651 21.3129C74.4322 20.889 74.1246 20.5608 73.728 20.3284C73.3315 20.0823 72.8734 19.9592 72.3538 19.9592C71.8479 19.9592 71.3898 20.0823 70.9796 20.3284C70.5694 20.5608 70.2481 20.8958 70.0156 21.3334C69.7832 21.7573 69.6669 22.2701 69.6669 22.8717V29.4146H67.7595ZM79.6572 29.4146V18.3594H81.5646V29.4146H79.6572ZM79.6572 16.5955V14.1342H81.5646V16.5955H79.6572ZM89.652 29.6607C88.5718 29.6607 87.6078 29.4077 86.7601 28.9018C85.926 28.3959 85.2696 27.7053 84.791 26.8302C84.3125 25.9551 84.0732 24.9706 84.0732 23.8767C84.0732 22.7691 84.3125 21.7846 84.791 20.9232C85.2696 20.0618 85.926 19.3781 86.7601 18.8721C87.6078 18.3662 88.5718 18.1133 89.652 18.1133C90.3767 18.1133 91.0536 18.2432 91.6826 18.503C92.3116 18.7628 92.8654 19.1114 93.3439 19.549C93.8225 19.9865 94.1712 20.4993 94.39 21.0873L92.6876 21.9077C92.4278 21.3334 92.0313 20.8685 91.498 20.513C90.9647 20.1438 90.3494 19.9592 89.652 19.9592C88.982 19.9592 88.3736 20.1301 87.8266 20.472C87.2933 20.8138 86.8694 21.2787 86.555 21.8667C86.2405 22.4546 86.0832 23.1315 86.0832 23.8972C86.0832 24.6356 86.2405 25.3056 86.555 25.9073C86.8694 26.4952 87.2933 26.9601 87.8266 27.302C88.3736 27.6438 88.982 27.8147 89.652 27.8147C90.3494 27.8147 90.9647 27.637 91.498 27.2815C92.0313 26.9123 92.4278 26.4269 92.6876 25.8252L94.39 26.6867C94.1712 27.2609 93.8225 27.7737 93.3439 28.2249C92.8654 28.6625 92.3116 29.0112 91.6826 29.271C91.0536 29.5308 90.3767 29.6607 89.652 29.6607ZM99.9833 29.6607C99.2585 29.6607 98.6159 29.5308 98.0553 29.271C97.5083 28.9975 97.0776 28.6283 96.7631 28.1634C96.4486 27.6848 96.2914 27.1379 96.2914 26.5226C96.2914 25.9346 96.4144 25.4082 96.6605 24.9433C96.9203 24.4647 97.3169 24.0613 97.8502 23.7331C98.3971 23.405 99.0808 23.1725 99.9012 23.0358L104.003 22.3589V23.9588L100.332 24.5741C99.6209 24.6971 99.1013 24.9227 98.7731 25.2509C98.4586 25.5791 98.3014 25.9825 98.3014 26.461C98.3014 26.9123 98.4791 27.2883 98.8347 27.5891C99.2039 27.8899 99.6619 28.0403 100.209 28.0403C100.906 28.0403 101.508 27.8968 102.014 27.6096C102.533 27.3088 102.937 26.9054 103.224 26.3995C103.525 25.8936 103.675 25.333 103.675 24.7176V21.9077C103.675 21.3061 103.45 20.8206 102.998 20.4515C102.561 20.0686 101.98 19.8772 101.255 19.8772C100.626 19.8772 100.065 20.0412 99.573 20.3694C99.0945 20.6839 98.7389 21.1078 98.5065 21.6411L96.8451 20.7796C97.0502 20.2737 97.3784 19.8225 97.8296 19.4259C98.2809 19.0157 98.8073 18.6944 99.409 18.4619C100.011 18.2295 100.64 18.1133 101.296 18.1133C102.144 18.1133 102.889 18.2773 103.532 18.6055C104.174 18.92 104.673 19.3644 105.029 19.9387C105.398 20.4993 105.583 21.1556 105.583 21.9077V29.4146H103.716V27.3225L104.065 27.4455C103.832 27.8831 103.518 28.266 103.121 28.5941C102.725 28.9223 102.26 29.1821 101.727 29.3735C101.193 29.565 100.612 29.6607 99.9833 29.6607ZM108.54 29.4146V13.8881H110.448V29.4146H108.54ZM122.716 29.6607C121.609 29.6607 120.624 29.4282 119.763 28.9633C118.915 28.4984 118.252 27.8626 117.773 27.0558C117.308 26.2354 117.076 25.3056 117.076 24.2664V14.1342H119.106V24.2254C119.106 24.9227 119.257 25.5449 119.558 26.0918C119.872 26.6251 120.296 27.0422 120.829 27.343C121.376 27.6438 122.005 27.7942 122.716 27.7942C123.427 27.7942 124.049 27.6438 124.583 27.343C125.13 27.0422 125.553 26.6251 125.854 26.0918C126.169 25.5449 126.326 24.9227 126.326 24.2254V14.1342H128.357V24.2664C128.357 25.3056 128.117 26.2354 127.639 27.0558C127.174 27.8626 126.517 28.4984 125.67 28.9633C124.822 29.4282 123.837 29.6607 122.716 29.6607ZM131.66 29.4146V14.1342H133.67V29.4146H131.66Z" fill="#00B782" fill-opacity="0.7"/>
</svg>
