<svg width="115" height="45" viewBox="0 0 115 45" fill="none" xmlns="http://www.w3.org/2000/svg">
<rect width="114.658" height="44.9328" rx="22.4664" fill="#00B782" fill-opacity="0.15"/>
<path d="M23.7822 29.6607C22.8113 29.6607 21.9225 29.4829 21.1158 29.1274C20.3091 28.7582 19.6254 28.2591 19.0647 27.6301C18.5041 27.0011 18.1008 26.297 17.8546 25.5176L19.598 24.7997C19.9672 25.7842 20.5142 26.5431 21.2389 27.0764C21.9772 27.596 22.8387 27.8558 23.8232 27.8558C24.4248 27.8558 24.9513 27.76 25.4025 27.5686C25.8537 27.3772 26.2024 27.1105 26.4485 26.7687C26.7083 26.4132 26.8382 26.003 26.8382 25.5381C26.8382 24.8954 26.6536 24.3895 26.2845 24.0203C25.9289 23.6374 25.4025 23.3503 24.7051 23.1588L21.8952 22.2974C20.7876 21.9556 19.9399 21.4154 19.3519 20.6771C18.7639 19.9387 18.4699 19.0909 18.4699 18.1338C18.4699 17.2997 18.6682 16.5681 19.0647 15.9391C19.475 15.2965 20.0356 14.7974 20.7466 14.4419C21.4713 14.0727 22.2917 13.8881 23.2079 13.8881C24.124 13.8881 24.9513 14.0522 25.6896 14.3803C26.4417 14.7085 27.0775 15.1529 27.5971 15.7135C28.1167 16.2605 28.4996 16.8895 28.7457 17.6005L27.0228 18.3184C26.6947 17.4569 26.2024 16.8074 25.5461 16.3699C24.8897 15.9186 24.1172 15.693 23.2284 15.693C22.6814 15.693 22.196 15.7887 21.7721 15.9802C21.3619 16.1579 21.0406 16.4246 20.8081 16.7801C20.5894 17.1219 20.48 17.5321 20.48 18.0107C20.48 18.5713 20.6577 19.0704 21.0132 19.508C21.3688 19.9455 21.9089 20.2805 22.6336 20.513L25.1974 21.2719C26.4007 21.6411 27.31 22.1675 27.9253 22.8512C28.5406 23.5349 28.8483 24.3826 28.8483 25.3945C28.8483 26.2286 28.6295 26.967 28.1919 27.6096C27.768 28.2523 27.1732 28.7582 26.4075 29.1274C25.6555 29.4829 24.7803 29.6607 23.7822 29.6607ZM36.6932 29.6607C35.613 29.6607 34.649 29.4077 33.8012 28.9018C32.9671 28.3959 32.3108 27.7053 31.8322 26.8302C31.3537 25.9551 31.1144 24.9706 31.1144 23.8767C31.1144 22.7691 31.3537 21.7846 31.8322 20.9232C32.3108 20.0618 32.9671 19.3781 33.8012 18.8721C34.649 18.3662 35.613 18.1133 36.6932 18.1133C37.4179 18.1133 38.0948 18.2432 38.7238 18.503C39.3528 18.7628 39.9065 19.1114 40.3851 19.549C40.8637 19.9865 41.2124 20.4993 41.4312 21.0873L39.7288 21.9077C39.469 21.3334 39.0724 20.8685 38.5392 20.513C38.0059 20.1438 37.3906 19.9592 36.6932 19.9592C36.0232 19.9592 35.4147 20.1301 34.8678 20.472C34.3345 20.8138 33.9106 21.2787 33.5961 21.8667C33.2816 22.4546 33.1244 23.1315 33.1244 23.8972C33.1244 24.6356 33.2816 25.3056 33.5961 25.9073C33.9106 26.4952 34.3345 26.9601 34.8678 27.302C35.4147 27.6438 36.0232 27.8147 36.6932 27.8147C37.3906 27.8147 38.0059 27.637 38.5392 27.2815C39.0724 26.9123 39.469 26.4269 39.7288 25.8252L41.4312 26.6867C41.2124 27.2609 40.8637 27.7737 40.3851 28.2249C39.9065 28.6625 39.3528 29.0112 38.7238 29.271C38.0948 29.5308 37.4179 29.6607 36.6932 29.6607ZM43.924 29.4146V13.8881H45.8315V20.513L45.4828 20.3284C45.7563 19.631 46.1938 19.0909 46.7955 18.7081C47.4108 18.3115 48.1286 18.1133 48.9491 18.1133C49.7421 18.1133 50.4463 18.291 51.0616 18.6465C51.6906 19.002 52.1829 19.4943 52.5384 20.1233C52.9076 20.7523 53.0922 21.4633 53.0922 22.2564V29.4146H51.1642V22.8717C51.1642 22.2564 51.048 21.7368 50.8155 21.3129C50.5967 20.889 50.2891 20.5608 49.8925 20.3284C49.496 20.0823 49.0379 19.9592 48.5183 19.9592C48.0124 19.9592 47.5543 20.0823 47.1441 20.3284C46.7339 20.5608 46.4126 20.8958 46.1801 21.3334C45.9477 21.7573 45.8315 22.2701 45.8315 22.8717V29.4146H43.924ZM60.9083 29.6607C59.8418 29.6607 58.8914 29.4077 58.0573 28.9018C57.2232 28.3959 56.5669 27.7053 56.0883 26.8302C55.6098 25.9414 55.3705 24.9501 55.3705 23.8562C55.3705 22.7486 55.6029 21.7641 56.0678 20.9027C56.5464 20.0412 57.1891 19.3644 57.9958 18.8721C58.8162 18.3662 59.7324 18.1133 60.7442 18.1133C61.5646 18.1133 62.2893 18.2637 62.9183 18.5645C63.561 18.8516 64.1011 19.2482 64.5387 19.7541C64.9899 20.2463 65.3317 20.8138 65.5642 21.4565C65.8103 22.0855 65.9334 22.7418 65.9334 23.4255C65.9334 23.5759 65.9197 23.7468 65.8924 23.9382C65.8787 24.116 65.8582 24.2869 65.8308 24.451H56.7652V22.8102H64.7233L63.8208 23.5485C63.9439 22.8375 63.8755 22.2017 63.6157 21.6411C63.3559 21.0804 62.973 20.636 62.4671 20.3079C61.9612 19.9797 61.3869 19.8156 60.7442 19.8156C60.1016 19.8156 59.5136 19.9797 58.9803 20.3079C58.447 20.636 58.03 21.1078 57.7292 21.7231C57.442 22.3247 57.3258 23.0426 57.3805 23.8767C57.3258 24.6835 57.4489 25.3945 57.7497 26.0098C58.0642 26.6114 58.5017 27.0832 59.0624 27.425C59.6367 27.7532 60.2588 27.9173 60.9288 27.9173C61.6672 27.9173 62.2893 27.7464 62.7953 27.4045C63.3012 27.0627 63.7114 26.6251 64.0259 26.0918L65.6257 26.9123C65.4069 27.4182 65.0651 27.8831 64.6002 28.307C64.149 28.7172 63.6089 29.0454 62.9799 29.2915C62.3646 29.5376 61.674 29.6607 60.9083 29.6607ZM68.4204 29.4146V18.3594H70.2869V20.6155L70.0203 20.2669C70.2937 19.5695 70.7313 19.0362 71.3329 18.667C71.9346 18.2978 72.6114 18.1133 73.3635 18.1133C74.2249 18.1133 74.9975 18.3525 75.6812 18.8311C76.3785 19.3097 76.8571 19.9387 77.1169 20.7181L76.5836 20.7386C76.8708 19.8772 77.3562 19.2277 78.0399 18.7901C78.7236 18.3389 79.4825 18.1133 80.3165 18.1133C81.0823 18.1133 81.7728 18.291 82.3881 18.6465C83.0171 19.002 83.5162 19.4943 83.8854 20.1233C84.2546 20.7523 84.4392 21.4633 84.4392 22.2564V29.4146H82.5112V22.8717C82.5112 22.2564 82.4018 21.7368 82.183 21.3129C81.9642 20.889 81.6634 20.5608 81.2805 20.3284C80.9114 20.0823 80.4738 19.9592 79.9679 19.9592C79.4756 19.9592 79.0312 20.0823 78.6347 20.3284C78.2518 20.5608 77.9442 20.8958 77.7117 21.3334C77.4929 21.7573 77.3835 22.2701 77.3835 22.8717V29.4146H75.4556V22.8717C75.4556 22.2564 75.3462 21.7368 75.1274 21.3129C74.9086 20.889 74.6078 20.5608 74.2249 20.3284C73.8557 20.0823 73.4182 19.9592 72.9123 19.9592C72.42 19.9592 71.9756 20.0823 71.5791 20.3284C71.1962 20.5608 70.8885 20.8958 70.6561 21.3334C70.4373 21.7573 70.3279 22.2701 70.3279 22.8717V29.4146H68.4204ZM90.389 29.6607C89.6643 29.6607 89.0216 29.5308 88.461 29.271C87.914 28.9975 87.4833 28.6283 87.1688 28.1634C86.8543 27.6848 86.6971 27.1379 86.6971 26.5226C86.6971 25.9346 86.8201 25.4082 87.0663 24.9433C87.3261 24.4647 87.7226 24.0613 88.2559 23.7331C88.8028 23.405 89.4865 23.1725 90.3069 23.0358L94.409 22.3589V23.9588L90.7377 24.5741C90.0266 24.6971 89.507 24.9227 89.1789 25.2509C88.8644 25.5791 88.7071 25.9825 88.7071 26.461C88.7071 26.9123 88.8849 27.2883 89.2404 27.5891C89.6096 27.8899 90.0676 28.0403 90.6146 28.0403C91.3119 28.0403 91.9136 27.8968 92.4195 27.6096C92.9391 27.3088 93.3425 26.9054 93.6296 26.3995C93.9305 25.8936 94.0809 25.333 94.0809 24.7176V21.9077C94.0809 21.3061 93.8553 20.8206 93.404 20.4515C92.9665 20.0686 92.3853 19.8772 91.6606 19.8772C91.0316 19.8772 90.471 20.0412 89.9788 20.3694C89.5002 20.6839 89.1447 21.1078 88.9122 21.6411L87.2509 20.7796C87.456 20.2737 87.7841 19.8225 88.2354 19.4259C88.6866 19.0157 89.213 18.6944 89.8147 18.4619C90.4163 18.2295 91.0453 18.1133 91.7016 18.1133C92.5494 18.1133 93.2946 18.2773 93.9373 18.6055C94.58 18.92 95.079 19.3644 95.4346 19.9387C95.8038 20.4993 95.9883 21.1556 95.9883 21.9077V29.4146H94.1219V27.3225L94.4706 27.4455C94.2381 27.8831 93.9236 28.266 93.5271 28.5941C93.1305 28.9223 92.6656 29.1821 92.1324 29.3735C91.5991 29.565 91.018 29.6607 90.389 29.6607Z" fill="#00B782" fill-opacity="0.7"/>
</svg>
