<svg width="237" height="108" viewBox="0 0 237 108" fill="none" xmlns="http://www.w3.org/2000/svg">
<path fill-rule="evenodd" clip-rule="evenodd" d="M199.949 53.2055C199.949 69.5191 193.417 72.4431 186.116 72.4431H170.594V33.9681H186.116C193.417 33.9681 199.949 36.8921 199.949 53.2055ZM192.034 53.2073C192.034 41.8187 188.576 41.2801 183.581 41.2801H178.741V65.1346H183.581C188.576 65.1346 192.034 64.596 192.034 53.2073ZM109.809 72.4431V33.9681H134.246V41.2784H117.955V49.1272H130.25V56.3606H117.955V65.1328H134.246V72.4431H109.809ZM147.541 107.45H155.589V0H147.541V107.45ZM216.238 55.363V65.1356H223C227.227 65.1356 228.302 62.3654 228.302 60.2877C228.302 58.6718 227.534 55.363 221.77 55.363H216.238ZM216.238 41.2801V48.5903H221.77C224.921 48.5903 226.765 47.2052 226.765 44.8968C226.765 42.5882 224.921 41.2801 221.77 41.2801H216.238ZM208.095 33.9681H223.77C231.994 33.9681 234.452 39.7393 234.452 43.8947C234.452 47.7422 231.994 50.5123 230.302 51.2819C235.221 53.6673 236.066 58.5152 236.066 60.9776C236.066 64.2094 234.452 72.4431 223.77 72.4431H208.095V33.9681ZM63.0133 53.2055C63.0133 69.5191 56.4816 72.4431 49.1814 72.4431H33.6588V33.9681H49.1814C56.4816 33.9681 63.0133 36.8921 63.0133 53.2055ZM86.9873 65.4442C91.1368 65.4442 93.2885 64.059 94.0569 63.1356V58.9034H87.4483V52.2856H100.589V67.5987C99.436 69.3685 93.1348 72.8313 87.3714 72.8313C77.9197 72.8313 69.9279 69.1376 69.9279 52.8242C69.9279 36.5108 77.9965 33.5868 85.2967 33.5868C96.7465 33.5868 99.5897 39.5889 100.512 44.8984L93.7495 46.4374C93.3654 43.975 91.2137 40.8971 86.2957 40.8971C81.3008 40.8971 77.8428 41.4357 77.8428 52.8242C77.8428 64.2129 81.4545 65.4442 86.9873 65.4442ZM55.0974 53.2073C55.0974 41.8187 51.6394 41.2801 46.6446 41.2801H41.8034V65.1346H46.6446C51.6394 65.1346 55.0974 64.596 55.0974 53.2073ZM0 72.4431V33.9681H24.4364V41.2784H8.14548V49.1272H20.4405V56.3606H8.14548V65.1328H24.4364V72.4431H0Z" fill="#00B782"/>
</svg>
