<svg width="46" height="45" viewBox="0 0 46 45" fill="none" xmlns="http://www.w3.org/2000/svg">
<rect width="46" height="45" rx="22.5" fill="#00B782" fill-opacity="0.15"/>
<path d="M16.7459 30.1915L22.9991 23.9384L29.2597 30.199C29.6574 30.5967 30.304 30.5967 30.7017 30.199C31.0994 29.8013 31.0994 29.1547 30.7017 28.757L24.4411 22.4964L30.6942 16.2432C31.0919 15.8455 31.0919 15.199 30.6942 14.8012C30.2965 14.4035 29.6499 14.4035 29.2522 14.8012L22.9991 21.0544L16.7459 14.8012C16.3493 14.4046 15.7052 14.4035 15.3072 14.798C14.893 15.2008 14.9034 15.8427 15.3039 16.2432L21.557 22.4964L15.3039 28.7495C14.9073 29.1462 14.9062 29.7903 15.3007 30.1883C15.7035 30.6025 16.3454 30.5921 16.7459 30.1915Z" fill="#00B782" stroke="#00B782"/>
</svg>
