<svg width="108" height="45" viewBox="0 0 108 45" fill="none" xmlns="http://www.w3.org/2000/svg">
<rect width="107.658" height="44.9328" rx="22.4664" fill="#00B782" fill-opacity="0.3"/>
<path d="M21.3824 29.4146L17.0547 18.3594H19.1878L22.6541 27.7122H21.9157L25.4025 18.3594H27.5356L23.1874 29.4146H21.3824ZM33.2007 29.6607C32.0931 29.6607 31.1291 29.3872 30.3087 28.8403C29.4883 28.2933 28.9071 27.5549 28.5653 26.6251L30.0831 25.8867C30.3976 26.5431 30.8283 27.0627 31.3752 27.4455C31.9222 27.8284 32.5307 28.0198 33.2007 28.0198C33.8023 28.0198 34.3014 27.8763 34.6979 27.5891C35.0945 27.302 35.2927 26.9259 35.2927 26.461C35.2927 26.1329 35.197 25.8731 35.0056 25.6816C34.8278 25.4765 34.6091 25.3193 34.3493 25.2099C34.0895 25.0868 33.8502 24.998 33.6314 24.9433L31.97 24.4715C30.9719 24.1844 30.2403 23.7742 29.7754 23.2409C29.3242 22.7076 29.0986 22.0855 29.0986 21.3744C29.0986 20.7181 29.2626 20.1506 29.5908 19.6721C29.9327 19.1798 30.3907 18.7969 30.965 18.5235C31.553 18.25 32.2093 18.1133 32.934 18.1133C33.9049 18.1133 34.7731 18.3594 35.5389 18.8516C36.3183 19.3439 36.8721 20.0344 37.2002 20.9232L35.6414 21.6411C35.3953 21.0668 35.0261 20.6155 34.5339 20.2874C34.0416 19.9455 33.4878 19.7746 32.8725 19.7746C32.3119 19.7746 31.8675 19.9182 31.5393 20.2053C31.2111 20.4788 31.0471 20.8275 31.0471 21.2514C31.0471 21.5659 31.1291 21.8257 31.2932 22.0308C31.4573 22.2222 31.6555 22.3726 31.888 22.482C32.1204 22.5777 32.3461 22.6598 32.5648 22.7281L34.3698 23.2614C35.2722 23.5212 35.9696 23.9246 36.4618 24.4715C36.9678 25.0185 37.2207 25.6748 37.2207 26.4405C37.2207 27.0558 37.0498 27.6096 36.708 28.1019C36.3661 28.5941 35.8944 28.977 35.2927 29.2505C34.6911 29.5239 33.9937 29.6607 33.2007 29.6607ZM40.4971 29.4146V26.9533H42.4866V29.4146H40.4971ZM55.249 29.6607C54.2782 29.6607 53.3894 29.4829 52.5826 29.1274C51.7759 28.7582 51.0922 28.2591 50.5316 27.6301C49.971 27.0011 49.5676 26.297 49.3215 25.5176L51.0649 24.7997C51.434 25.7842 51.981 26.5431 52.7057 27.0764C53.4441 27.596 54.3055 27.8558 55.29 27.8558C55.8917 27.8558 56.4181 27.76 56.8693 27.5686C57.3206 27.3772 57.6692 27.1105 57.9154 26.7687C58.1752 26.4132 58.3051 26.003 58.3051 25.5381C58.3051 24.8954 58.1205 24.3895 57.7513 24.0203C57.3958 23.6374 56.8693 23.3503 56.172 23.1588L53.362 22.2974C52.2545 21.9556 51.4067 21.4154 50.8187 20.6771C50.2308 19.9387 49.9368 19.0909 49.9368 18.1338C49.9368 17.2997 50.135 16.5681 50.5316 15.9391C50.9418 15.2965 51.5024 14.7974 52.2134 14.4419C52.9381 14.0727 53.7586 13.8881 54.6747 13.8881C55.5908 13.8881 56.4181 14.0522 57.1565 14.3803C57.9085 14.7085 58.5444 15.1529 59.064 15.7135C59.5836 16.2605 59.9664 16.8895 60.2125 17.6005L58.4897 18.3184C58.1615 17.4569 57.6692 16.8074 57.0129 16.3699C56.3566 15.9186 55.584 15.693 54.6952 15.693C54.1483 15.693 53.6629 15.7887 53.239 15.9802C52.8288 16.1579 52.5074 16.4246 52.275 16.7801C52.0562 17.1219 51.9468 17.5321 51.9468 18.0107C51.9468 18.5713 52.1246 19.0704 52.4801 19.508C52.8356 19.9455 53.3757 20.2805 54.1004 20.513L56.6642 21.2719C57.8675 21.6411 58.7768 22.1675 59.3921 22.8512C60.0074 23.5349 60.3151 24.3826 60.3151 25.3945C60.3151 26.2286 60.0963 26.967 59.6588 27.6096C59.2349 28.2523 58.6401 28.7582 57.8743 29.1274C57.1223 29.4829 56.2472 29.6607 55.249 29.6607ZM70.5598 29.6607C69.4796 29.6607 68.4677 29.4692 67.5242 29.0864C66.5807 28.6898 65.7535 28.1361 65.0425 27.425C64.3451 26.714 63.7981 25.8799 63.4016 24.9227C63.0051 23.9519 62.8068 22.899 62.8068 21.7641C62.8068 20.6155 63.0051 19.5627 63.4016 18.6055C63.7981 17.6483 64.3451 16.8143 65.0425 16.1032C65.7535 15.3922 66.5739 14.8452 67.5037 14.4624C68.4472 14.0795 69.4659 13.8881 70.5598 13.8881C71.6537 13.8881 72.6655 14.0864 73.5953 14.4829C74.5388 14.8658 75.3592 15.4127 76.0566 16.1237C76.7676 16.8211 77.3214 17.6483 77.718 18.6055C78.1282 19.5627 78.3333 20.6155 78.3333 21.7641C78.3333 22.899 78.1282 23.9519 77.718 24.9227C77.3214 25.8799 76.7676 26.714 76.0566 27.425C75.3592 28.1361 74.5388 28.6898 73.5953 29.0864C72.6655 29.4692 71.6537 29.6607 70.5598 29.6607ZM70.5598 27.7942C71.4076 27.7942 72.1801 27.6438 72.8775 27.343C73.5748 27.0285 74.1765 26.5978 74.6824 26.0508C75.202 25.4902 75.5985 24.8475 75.872 24.1228C76.1592 23.3845 76.3027 22.5982 76.3027 21.7641C76.3027 20.93 76.1592 20.1506 75.872 19.4259C75.5985 18.7012 75.202 18.0654 74.6824 17.5184C74.1765 16.9578 73.5748 16.5271 72.8775 16.2263C72.1801 15.9118 71.4076 15.7545 70.5598 15.7545C69.7257 15.7545 68.96 15.9118 68.2626 16.2263C67.5652 16.5271 66.9568 16.9578 66.4372 17.5184C65.9312 18.0654 65.5347 18.7012 65.2476 19.4259C64.9604 20.1506 64.8168 20.93 64.8168 21.7641C64.8168 22.5982 64.9604 23.3845 65.2476 24.1228C65.5347 24.8475 65.9312 25.4902 66.4372 26.0508C66.9568 26.5978 67.5652 27.0285 68.2626 27.343C68.96 27.6438 69.7257 27.7942 70.5598 27.7942ZM74.6824 31.2605L69.4727 23.3024H71.6879L76.918 31.2605H74.6824ZM81.2648 29.4146V14.1342H83.2749V27.5686H89.9818V29.4146H81.2648Z" fill="#00B782"/>
</svg>
